<?xml version="1.0" encoding="utf-8"?>
<!-- Generator: Adobe Illustrator 24.1.0, SVG Export Plug-In . SVG Version: 6.00 Build 0)  -->
<svg version="1.1" xmlns="http://www.w3.org/2000/svg" xmlns:xlink="http://www.w3.org/1999/xlink" x="0px" y="0px"
	 viewBox="0 0 500 500" style="enable-background:new 0 0 500 500;" xml:space="preserve">
<style type="text/css">
	.st0{fill:url(#SVGID_1_);}
	.st1{fill:#4F2A30;}
	.st2{fill:#80DD96;}
	.st3{fill:#937FDB;}
	.st4{fill:none;stroke:#15002B;stroke-miterlimit:10;}
	.st5{fill:none;stroke:url(#SVGID_2_);stroke-miterlimit:10;}
	.st6{fill:none;stroke:url(#SVGID_3_);stroke-miterlimit:10;}
	.st7{fill:none;stroke:url(#SVGID_4_);stroke-miterlimit:10;}
	.st8{fill:none;stroke:url(#SVGID_5_);stroke-miterlimit:10;}
	.st9{fill:#FFFFFF;}
	.st10{font-family:'Digitalt';}
	.st11{font-size:3.2rem;}
	.st12{letter-spacing:2;}
</style>
<g id="BACKGROUND">
</g>
<g id="OBJECTS">
	<g>
		<g>
			<g>
				<!-- <text transform="matrix(1 0 0 1 154.7938 362.9487)" class="st9 st10 st11 st12">wyreweb</text> -->
			</g>
		</g>
		<path class="st2" d="M187.12,317.97c-0.32,0.84-0.99,0.91-1.77,0.91c-9.85,0.03-19.71,0.07-29.56,0.1c-0.13,0-0.26-0.1-0.7-0.27
			c5.51-37.39,19.58-71.37,41.33-102.21c32.47-46.05,76.77-73.37,117.22-88.59c0.27,1.72,0.55,3.4,0.8,5.08
			c0.9,5.91,1.79,11.82,2.63,17.74c0.47,3.27,1.05,6.55,1.74,9.8c0.32,1.52-0.18,2.15-1.46,2.82
			c-15.89,8.29-30.92,17.92-44.89,29.16c-8.92,7.18-17.36,14.85-25.29,23.13c-6.67,6.97-12.9,14.28-18.88,21.83
			c-0.69,0.87-1.69,1.64-1.66,2.95c-0.87,0.43-1.47,1.18-2,1.95c-1.97,2.84-3.76,5.83-5.79,8.6c-4.46,6.08-8.16,12.6-11.83,19.13
			c-6.31,11.23-11.53,22.98-15.97,35.08C189.49,309.37,188.02,313.58,187.12,317.97z"/>
		<path class="st2" d="M259.03,316.71c-5.61,0.64-11.26,0.62-16.89,0.91c-7.29,0.37-14.59,0.66-22.26,1
			c2.86-6.17,5.52-12.08,8.34-17.91c2.76-5.7,5.63-11.36,8.58-16.97c3.76-7.16,7.91-14.09,12.42-20.8c0.19-0.29,0.27-0.65,0.4-0.98
			c3.64-4.75,7.16-9.6,10.94-14.23c6.12-7.52,13.04-14.27,20.32-20.68c9.22-8.11,19.1-15.32,29.13-22.35
			c4.3-3.02,8.86-5.67,12.93-9.03c0,0-0.09,0.02-0.09,0.02c0.34,0.25,0.62,0.11,0.88-0.14c0.68,0.51,0.46,1.31,0.56,1.97
			c1.07,7.75,2.11,15.51,3.16,23.27c0.51,3.78,0.93,7.57,1.57,11.32c0.29,1.71-0.14,2.77-1.5,3.85
			c-9.79,7.82-19.28,15.98-28.15,24.83c-0.51,0.51-0.98,1.06-1.47,1.6c-1.85,1.93-3.76,3.8-5.53,5.79
			c-4.85,5.45-9.31,11.2-13.56,17.14c-4.91,6.85-9.31,14.03-13.7,21.22C263.04,309.9,261.37,313.5,259.03,316.71z"/>
		<path class="st3" d="M322.94,195.65c-4.06,3.36-8.62,6.01-12.93,9.03c-10.03,7.03-19.91,14.25-29.13,22.35
			c-7.28,6.41-14.19,13.16-20.32,20.68c-3.78,4.64-7.3,9.48-10.94,14.23c-9.15,5.99-17.71,12.74-26.03,19.83
			c-13.07,11.14-25.13,23.31-36.47,36.19c0.9-4.39,2.37-8.6,3.91-12.79c4.44-12.1,9.66-23.84,15.97-35.08
			c3.67-6.54,7.38-13.05,11.83-19.13c2.03-2.77,3.82-5.76,5.79-8.6c0.53-0.77,1.13-1.51,2-1.95c10.03-7.77,20.75-14.49,31.88-20.58
			c13.37-7.31,27.25-13.45,41.74-18.18C307.69,199.23,315.15,196.83,322.94,195.65z"/>
		<path class="st2" d="M335.48,263.02c0.58,0.48,0.45,1.19,0.55,1.81c2.14,12.83,4.27,25.66,6.4,38.5c0.53,3.18,1.1,6.36,1.56,9.56
			c0.45,3.14-1.31,5.31-4.46,5.34c-16.64,0.11-33.27,0.16-49.91,0.22c-0.27,0-0.55-0.09-0.98-0.16c3.81-7.88,8.64-14.98,13.5-22.06
			c4.48-5.68,9.26-11.11,14.36-16.22c2.79-2.79,5.42-5.76,8.55-8.23C328.61,268.95,332.01,265.94,335.48,263.02z"/>
		<path class="st3" d="M335.48,263.02c-3.47,2.92-6.87,5.94-10.43,8.74c-3.13,2.47-5.76,5.44-8.55,8.23
			c-5.1,5.11-9.88,10.54-14.36,16.22c-6.77,1.32-13.14,3.8-19.4,6.61c-7.76,3.49-15,7.84-21.9,12.8c-0.56,0.4-1.01,1.06-1.81,1.09
			c2.34-3.21,4.01-6.82,6.07-10.19c4.39-7.19,8.78-14.37,13.7-21.22c4.25-5.93,8.71-11.69,13.56-17.14
			c1.77-1.99,3.68-3.86,5.53-5.79c4.69-0.82,9.25-2.3,14.03-2.68c7.08-0.56,14.07-0.33,20.85,2.03
			C333.72,262.06,334.72,262.29,335.48,263.02z"/>
		<path class="st1" d="M316.73,195.53c-0.26,0.25-0.54,0.38-0.88,0.14C316.12,195.5,316.4,195.35,316.73,195.53z"/>
	</g>
</g>
</svg>
